<svg xmlns="http://www.w3.org/2000/svg" version="1.1" x="0" y="0" viewBox="0 0 60 60" style="enable-background:new 0 0 512 512" xml:space="preserve" class=""><g><path d="M55.986 36.779C55.53 22.564 43.36 11 28.857 11H27a1 1 0 0 1-1-1V2.809a.787.787 0 0 0-.477-.728.84.84 0 0 0-.909.125L4.283 19.4a.77.77 0 0 0 .006 1.2L24.6 37.785a.839.839 0 0 0 .917.132.787.787 0 0 0 .483-.728V29a1 1 0 0 1 1-1h2.53a19.23 19.23 0 0 1 19.307 19.56A20.708 20.708 0 0 1 46.2 57.71c-.034.06-.074.128.04.226a.179.179 0 0 0 .254.021 26.4 26.4 0 0 0 9.492-21.178z" data-original="#000000" class=""></path></g></svg>