<svg xmlns="http://www.w3.org/2000/svg" version="1.1" x="0" y="0" viewBox="0 0 48 48" style="enable-background:new 0 0 512 512" xml:space="preserve" class=""><g><g transform="translate(-504 -360)"><g id="OUTLINE" transform="scale(1.5)"><g transform="matrix(.675 0 0 .667 44.169 0)"><path d="m477.988 372c0-2.209-1.769-4-3.952-4h-24.703c-2.183 0-3.952 1.791-3.952 4s1.769 4 3.952 4h24.703c2.183 0 3.952-1.791 3.952-4zm-1.976 0c0 1.105-.885 2-1.976 2h-24.703c-1.091 0-1.976-.895-1.976-2s.885-2 1.976-2h24.703c1.091 0 1.976.895 1.976 2z" data-original="#000000" class=""></path></g><g transform="matrix(.675 0 0 .667 44.169 7.995)"><path d="m477.988 372c0-2.209-1.769-4-3.952-4h-24.703c-2.183 0-3.952 1.791-3.952 4s1.769 4 3.952 4h24.703c2.183 0 3.952-1.791 3.952-4zm-1.976 0c0 1.105-.885 2-1.976 2h-24.703c-1.091 0-1.976-.895-1.976-2s.885-2 1.976-2h24.703c1.091 0 1.976.895 1.976 2z" data-original="#000000" class=""></path></g><g transform="matrix(.675 0 0 .667 44.169 15.99)"><path d="m477.988 372c0-2.209-1.769-4-3.952-4h-24.703c-2.183 0-3.952 1.791-3.952 4s1.769 4 3.952 4h24.703c2.183 0 3.952-1.791 3.952-4zm-1.976 0c0 1.105-.885 2-1.976 2h-24.703c-1.091 0-1.976-.895-1.976-2s.885-2 1.976-2h24.703c1.091 0 1.976.895 1.976 2z" data-original="#000000" class=""></path></g><g transform="matrix(.776 0 0 .776 -55.309 -40.583)"><path d="m510.008 368.141c-2.135 0-3.867 1.732-3.867 3.867 0 2.134 1.732 3.867 3.867 3.867 2.134 0 3.867-1.733 3.867-3.867 0-2.135-1.733-3.867-3.867-3.867zm0 1.718c1.186 0 2.148.963 2.148 2.149s-.962 2.148-2.148 2.148-2.149-.962-2.149-2.148.963-2.149 2.149-2.149z" data-original="#000000" class=""></path></g><g transform="matrix(.776 0 0 .776 -55.309 -32.588)"><path d="m510.008 368.141c-2.135 0-3.867 1.732-3.867 3.867 0 2.134 1.732 3.867 3.867 3.867 2.134 0 3.867-1.733 3.867-3.867 0-2.135-1.733-3.867-3.867-3.867zm0 1.718c1.186 0 2.148.963 2.148 2.149s-.962 2.148-2.148 2.148-2.149-.962-2.149-2.148.963-2.149 2.149-2.149z" data-original="#000000" class=""></path></g><g transform="matrix(.776 0 0 .776 -55.309 -24.593)"><path d="m510.008 368.141c-2.135 0-3.867 1.732-3.867 3.867 0 2.134 1.732 3.867 3.867 3.867 2.134 0 3.867-1.733 3.867-3.867 0-2.135-1.733-3.867-3.867-3.867zm0 1.718c1.186 0 2.148.963 2.148 2.149s-.962 2.148-2.148 2.148-2.149-.962-2.149-2.148.963-2.149 2.149-2.149z" data-original="#000000" class=""></path></g></g></g></g></svg>