<svg xmlns="http://www.w3.org/2000/svg" version="1.1" x="0" y="0" viewBox="0 0 32 32" style="enable-background:new 0 0 512 512" xml:space="preserve"><g><path d="m4 31h2a3 3 0 0 0 3-3v-.54l14.06-1.91a3 3 0 0 0 2.94 2.45h2a3 3 0 0 0 3-3v-2a3 3 0 0 0 -3-3v-8a3 3 0 0 0 3-3v-2a3 3 0 0 0 -3-3h-2a3 3 0 0 0 -2.94 2.45l-14.06-1.91v-.54a3 3 0 0 0 -3-3h-2a3 3 0 0 0 -3 3v2a3 3 0 0 0 3 3v14a3 3 0 0 0 -3 3v2a3 3 0 0 0 3 3zm4.94-24.45 14.06 1.91v.54a3 3 0 0 0 3 3v8a3 3 0 0 0 -3 3v.54l-14.06 1.91a3 3 0 0 0 -2.94-2.45v-14a3 3 0 0 0 2.94-2.45z" data-original="#000000"></path></g></svg>