<svg xmlns="http://www.w3.org/2000/svg" version="1.1" x="0" y="0" viewBox="0 0 32 32" style="enable-background:new 0 0 512 512" xml:space="preserve" class=""><g><path d="M4 9h4c0 1.103.897 2 2 2h2c1.103 0 2-.897 2-2h14a1 1 0 1 0 0-2H14c0-1.103-.897-2-2-2h-2c-1.103 0-2 .897-2 2H4a1 1 0 1 0 0 2zM28 15h-6c0-1.103-.897-2-2-2h-2c-1.103 0-2 .897-2 2H4a1 1 0 1 0 0 2h12c0 1.103.897 2 2 2h2c1.103 0 2-.897 2-2h6a1 1 0 1 0 0-2zM28 23H14c0-1.103-.897-2-2-2h-2c-1.103 0-2 .897-2 2H4a1 1 0 1 0 0 2h4c0 1.103.897 2 2 2h2c1.103 0 2-.897 2-2h14a1 1 0 1 0 0-2z" data-original="#000000" class=""></path></g></svg>