<svg xmlns="http://www.w3.org/2000/svg" version="1.1" x="0" y="0" viewBox="0 0 469.333 469.333" style="enable-background:new 0 0 512 512" xml:space="preserve" class=""><g>
<g>
	<g>
		<path d="M405.333,149.333h-64V64H42.667C19.093,64,0,83.093,0,106.667v234.667h42.667c0,35.307,28.693,64,64,64s64-28.693,64-64
			h128c0,35.307,28.693,64,64,64c35.307,0,64-28.693,64-64h42.667V234.667L405.333,149.333z M106.667,373.333
			c-17.707,0-32-14.293-32-32s14.293-32,32-32s32,14.293,32,32S124.373,373.333,106.667,373.333z M362.667,373.333
			c-17.707,0-32-14.293-32-32s14.293-32,32-32s32,14.293,32,32S380.373,373.333,362.667,373.333z M341.333,234.667v-53.333h53.333
			l41.92,53.333H341.333z" data-original="#000000" class=""></path>
	</g>
</g>
<g>
</g>
<g>
</g>
<g>
</g>
<g>
</g>
<g>
</g>
<g>
</g>
<g>
</g>
<g>
</g>
<g>
</g>
<g>
</g>
<g>
</g>
<g>
</g>
<g>
</g>
<g>
</g>
<g>
</g>
</g></svg>