<svg xmlns="http://www.w3.org/2000/svg" version="1.1" x="0" y="0" viewBox="0 0 32 32" style="enable-background:new 0 0 512 512" xml:space="preserve" class=""><g><path d="m29.621 7.905-1.897-.474a4.927 4.927 0 0 0-.273-.664l1.005-1.675a.5.5 0 0 0-.075-.61l-.862-.863a.5.5 0 0 0-.611-.075l-1.675 1.005a4.935 4.935 0 0 0-.664-.273l-.474-1.897A.5.5 0 0 0 23.61 2h-1.22a.5.5 0 0 0-.485.379l-.474 1.897c-.23.076-.45.165-.664.273l-1.675-1.005a.5.5 0 0 0-.61.075l-.863.862a.5.5 0 0 0-.075.611l1.005 1.675a4.927 4.927 0 0 0-.273.664l-1.897.474A.5.5 0 0 0 16 8.39v1.22a.5.5 0 0 0 .379.485l1.897.474c.076.23.165.45.273.664l-1.005 1.675a.5.5 0 0 0 .075.61l.862.863a.5.5 0 0 0 .611.075l1.675-1.005c.213.108.434.197.664.273l.474 1.897a.5.5 0 0 0 .485.379h1.22a.5.5 0 0 0 .485-.379l.474-1.897c.23-.076.45-.165.664-.273l1.675 1.005a.5.5 0 0 0 .61-.075l.863-.862a.5.5 0 0 0 .075-.611l-1.005-1.675c.108-.213.197-.434.273-.664l1.897-.474A.5.5 0 0 0 30 9.61V8.39a.5.5 0 0 0-.379-.485zM23 12a3 3 0 1 1 0-6 3 3 0 0 1 0 6z" data-original="#000000" class=""></path><circle cx="23" cy="9" r="2" data-original="#000000" class=""></circle><path d="M22.486 17.147 17 20l6 3 6-3-5.486-2.853a.976.976 0 0 0-1.028 0zM17 21.085l5.5 2.715V30l-5.055-2.618A1 1 0 0 1 17 26.55zM29 21.085 23.5 23.8V30l5.055-2.618A1 1 0 0 0 29 26.55zM6 6l.5 1h4l.5-1z" data-original="#000000" class=""></path><path d="M14 6h-2l-1 2H6L5 6H3a1 1 0 0 0-1 1v17a1 1 0 0 0 1 1h11a1 1 0 0 0 1-1V7a1 1 0 0 0-1-1zm-9.854 5.147a.5.5 0 0 1 .707 0l.51.509.69-1.38a.5.5 0 0 1 .894.448l-1 2a.5.5 0 0 1-.8.13l-1-1a.5.5 0 0 1 0-.707zm0 5a.5.5 0 0 1 .707 0l.51.509.69-1.38a.5.5 0 0 1 .894.448l-1 2a.5.5 0 0 1-.8.13l-1-1a.5.5 0 0 1 0-.708zm2.801 4.577-1 2a.5.5 0 0 1-.8.13l-1-1a.5.5 0 1 1 .707-.708l.509.51.69-1.38a.5.5 0 0 1 .894.448zM12.5 22h-4a.5.5 0 1 1 0-1h4a.5.5 0 1 1 0 1zm0-5h-4a.5.5 0 1 1 0-1h4a.5.5 0 1 1 0 1zm0-5h-4a.5.5 0 1 1 0-1h4a.5.5 0 1 1 0 1z" data-original="#000000" class=""></path></g></svg>