<svg xmlns="http://www.w3.org/2000/svg" version="1.1" x="0" y="0" viewBox="0 0 512 512" style="enable-background:new 0 0 512 512" xml:space="preserve" class=""><g><g id="_12-timber"><path d="m511.872 46.568c-.323-3.524-4.155-5.947-6.392-6.408l-199.88-40c-2.614-.525-5.318.295-7.2 2.184l-296.112 296.056c-1.428 1.455-2.246 3.401-2.288 5.44v.104 48.056c-.001 3.802 2.675 7.08 6.4 7.84l38.672 7.736-42.728 42.768c-.378.446-2.36 2.664-2.344 5.656v48c-.001 3.802 2.675 7.08 6.4 7.84l200 40c.526.111 1.062.165 1.6.16 2.122 0 4.156-.844 5.656-2.344l296-296c1.5-1.5 2.344-3.534 2.344-5.656v-48c.001-3.802-2.675-7.08-6.4-7.84l-38.672-7.744 42.76-42.76c1.489-1.505 2.32-3.539 2.312-5.656v-48.144c-.006-.432-.049-.863-.128-1.288zm-306.504 400.752-19.456-3.896c4.993-15.325 11.875-29.968 20.488-43.592.526.114 1.062.17 1.6.168 1.055-.001 2.1-.213 3.072-.624.968-.394 1.847-.979 2.584-1.72l135.944-135.936c-6.556 17.566-10.958 35.862-13.112 54.488zm-15.712-50.832c-8.158 13.799-14.709 28.487-19.528 43.776l-72.128-14.4c4.242-15.208 9.639-30.07 16.144-44.456zm15.712-61.168-12.44-2.52c21.124-96.089 68.107-184.578 135.872-255.904l44.536-46.872 33.864 6.776-42.92 40.416c-53.327 50.095-86.118 118.231-92 191.16zm149.4-309.008-37.6 39.56c-69.836 73.527-118.226 164.759-139.928 263.816l-76.728-15.344c51.731-91.189 115.504-174.998 189.6-249.168l43.16-43.16zm20.48 62.552 51.2-48.208 61.296 12.256-197.192 197.224c9.375-61.725 39.2-118.516 84.696-161.272zm-68.616-72.184 7.808 1.6-35.616 35.584c-76.391 76.426-141.958 162.952-194.872 257.168l-59.728-11.944zm-290.632 297.08 184 36.8v31.68l-184-36.8zm82.064 64.408c-6.327 14.444-11.604 29.325-15.792 44.528l-58.048-11.608 39.776-39.736zm-82.064 47.592 184 36.8v31.68l-184-36.8zm480-221.072-280 280v-25.376l280-280zm-8.224-39.776-131.776 131.752c6.527-34.498 23.657-66.1 49-90.4l48.272-48.272zm8.224-72.224-280 280v-25.376l280-280z" data-original="#000000" class=""></path></g></g></svg>