<svg xmlns="http://www.w3.org/2000/svg" version="1.1" x="0" y="0" viewBox="0 0 512 512" style="enable-background:new 0 0 512 512" xml:space="preserve" class=""><g><path d="m340.622 85.898-176.351 78.158 81.062 35.928 176.349-78.16z" data-original="#000000" class=""></path><path d="m137.948 152.39 176.352-78.158-60.323-26.732a21.333 21.333 0 0 0 -17.288 0l-167.7 74.327z" data-original="#000000" class=""></path><path d="m234.667 218.59-181.334-80.37v209.806a21.332 21.332 0 0 0 12.69 19.5l168.643 74.742z" data-original="#000000" class=""></path><path d="m256 362.667v79.605l22.855-10.13a116.684 116.684 0 0 1 -22.855-69.475z" data-original="#000000" class=""></path><path d="m373.333 245.333a116.611 116.611 0 0 1 64 19.067v-126.18l-181.333 80.37v144.077a117.466 117.466 0 0 1 117.333-117.334z" data-original="#000000" class=""></path><path d="m373.333 266.667a96 96 0 1 0 96 96 96 96 0 0 0 -96-96zm39.542 120.458a10.666 10.666 0 1 1 -15.083 15.083l-24.459-24.458-24.458 24.458a10.666 10.666 0 1 1 -15.083-15.083l24.458-24.458-24.458-24.458a10.666 10.666 0 1 1 15.083-15.083l24.458 24.458 24.458-24.458a10.666 10.666 0 1 1 15.083 15.083l-24.458 24.458z" data-original="#000000" class=""></path></g></svg>