<svg xmlns="http://www.w3.org/2000/svg" version="1.1" x="0" y="0" viewBox="0 0 3876.8 3869.2" style="enable-background:new 0 0 512 512" xml:space="preserve" class=""><g><g><path d="m2103.2 3188.1h-1688c-132.9 0-241-113.3-241-252.5v-808.2c0-137.2 105.6-252.5 241-252.5 132.9 0 241 113.3 241 252.5v280.3c0 33.5-27.1 60.6-60.6 60.6s-60.6-27.1-60.6-60.6v-280.3c0-72.4-53.8-131.4-119.9-131.4-64.3 0-119.9 56.8-119.9 131.3v808.2c0 72.4 53.8 131.3 119.9 131.3h1688c66.1 0 119.9-58.9 119.9-131.3-.9-850.8 2.2-810.4-2.6-835.7-19.3-99.4-132.7-139.1-200.6-66.7-17.2 18.3-28.9 41.3-33.8 66.7-4.6 24.2-1.7 13.9-2.6 307.8 0 33.5-27.1 60.6-60.6 60.6s-60.6-27.1-60.6-60.6v-280.3c0-213.2 238.4-331 395.6-193.8 53.6 46.9 86.5 117.5 86.5 193.8v808.2c-.1 139.3-108.2 252.6-241.1 252.6z" data-original="#000000" class=""></path></g><g><path d="m567.4 3477.7h-110c-53.9 0-97.8-42.4-97.8-94.5v-255.7c0-33.5 27.1-60.6 60.6-60.6s60.6 27.1 60.6 60.6v229h76.6l220-267.5c21.3-25.8 59.4-29.5 85.3-8.3 25.8 21.3 29.6 59.4 8.3 85.3l-227.1 276.1c-18.6 22.6-46.5 35.6-76.5 35.6z" data-original="#000000" class=""></path></g><g><path d="m2061 3477.7h-110c-30 0-57.9-13-76.5-35.7l-227.1-276c-21.3-25.8-17.5-64 8.3-85.3s64-17.5 85.3 8.3l220.1 267.5h76.6v-229c0-33.5 27.1-60.6 60.6-60.6s60.6 27.1 60.6 60.6v255.7c-.1 52.1-44 94.5-97.9 94.5z" data-original="#000000" class=""></path></g><g><path d="m1922.8 2835.4h-1327.2c-33.5 0-60.6-27.1-60.6-60.6v-848.4c0-183.6 149.4-333 333-333 825.9.5 787.5-1.2 815.1 1.6 169.5 16.6 300.1 159.5 300.1 331.4v848.4c.1 33.4-27 60.6-60.4 60.6zm-60.6-121.2v-787.8c0-109.6-82.1-200.2-190.9-210.8-17.9-1.8 24.8-.7-803.3-1-116.8 0-211.8 95-211.8 211.8v787.8z" data-original="#000000" class=""></path></g><g><path d="m1922.8 2835.4c-33.5 0-60.6-27.1-60.6-60.6v-168.5c0-77.4-62.9-140.3-140.3-140.3h-925.4c-77.4 0-140.3 62.9-140.3 140.3v168.5c0 33.5-27.1 60.6-60.6 60.6s-60.6-27.1-60.6-60.6v-168.5c0-144.2 117.3-261.4 261.4-261.4h925.4c144.2 0 261.5 117.3 261.5 261.4v168.5c0 33.4-27.1 60.6-60.5 60.6z" data-original="#000000" class=""></path></g><g><path d="m3642 3032.4h-1358.3c-33.5 0-60.6-27.1-60.6-60.6s27.1-60.6 60.6-60.6h1297.8v-2398.6h-1843.8v1142.7c0 33.5-27.1 60.6-60.6 60.6s-60.6-27.1-60.6-60.6v-1203.2c0-33.5 27.1-60.6 60.6-60.6h1964.9c33.5 0 60.6 27.1 60.6 60.6v2519.8c0 33.4-27.1 60.5-60.6 60.5z" data-original="#000000" class=""></path></g><g><path d="m3527.8 3339.3h-216.6c-24.2 0-46.1-14.4-55.7-36.7l-131.8-306.9c-13.2-30.7 1-66.4 31.8-79.6 30.7-13.2 66.4 1 79.6 31.8l116 270.2h116.1v-246.3c0-33.5 27.1-60.6 60.6-60.6s60.6 27.1 60.6 60.6v306.9c0 33.5-27.1 60.6-60.6 60.6z" data-original="#000000" class=""></path></g><g><path d="m3642 2320.1h-1358.3c-33.5 0-60.6-27.1-60.6-60.6s27.1-60.6 60.6-60.6h1358.3c33.5 0 60.6 27.1 60.6 60.6s-27.1 60.6-60.6 60.6z" data-original="#000000" class=""></path></g><g><path d="m2659.6 3032.4c-33.5 0-60.6-27.1-60.6-60.6v-2519.7c0-33.5 27.1-60.6 60.6-60.6s60.6 27.1 60.6 60.6v2519.8c0 33.4-27.1 60.5-60.6 60.5z" data-original="#000000" class=""></path></g><g><path d="m2477.8 2756.3c-33.5 0-60.6-27.1-60.6-60.6v-160.2c0-33.5 27.1-60.6 60.6-60.6s60.6 27.1 60.6 60.6v160.2c0 33.5-27.2 60.6-60.6 60.6z" data-original="#000000" class=""></path></g><g><path d="m2841.4 2756.3c-33.5 0-60.6-27.1-60.6-60.6v-160.2c0-33.5 27.1-60.6 60.6-60.6s60.6 27.1 60.6 60.6v160.2c0 33.5-27.1 60.6-60.6 60.6z" data-original="#000000" class=""></path></g><g><path d="m2437.7 1738.8c-33.5 0-60.6-27.1-60.6-60.6v-645c0-33.5 27.1-60.6 60.6-60.6s60.6 27.1 60.6 60.6v645c-.1 33.5-27.2 60.6-60.6 60.6z" data-original="#000000" class=""></path></g><g><path d="m2881.5 1738.8c-33.5 0-60.6-27.1-60.6-60.6v-645c0-33.5 27.1-60.6 60.6-60.6s60.6 27.1 60.6 60.6v645c0 33.5-27.1 60.6-60.6 60.6z" data-original="#000000" class=""></path></g></g></svg>