<svg xmlns="http://www.w3.org/2000/svg" version="1.1" x="0" y="0" viewBox="0 0 512 512" style="enable-background:new 0 0 512 512" xml:space="preserve" class=""><g>
<g>
	<g>
		<path d="M400.084,252H364V121.9c16-4.956,24-18.26,24-33.9V32c0-19.848-12.068-32-31.916-32h-192C144.236,0,124,12.152,124,32v56
			c0,15.64,12,28.94,24,33.9V252h-27.916c-6.616,0-16.084,1.388-16.084,8v24c0,6.616,4,12,12,12v208c0,2.208,5.876,8,8.084,8h24
			c2.208,0-0.084-5.792-0.084-8V364h216v140c0,2.208,5.876,8,8.084,8h24c2.208,0-0.084-5.792-0.084-8V296c8,0,12-5.384,12-12v-24
			C408,253.388,406.704,252,400.084,252z M172,128h168v124H172V128z M364,340H148v-40h216V340z" data-original="#000000"></path>
	</g>
</g>
<g>
</g>
<g>
</g>
<g>
</g>
<g>
</g>
<g>
</g>
<g>
</g>
<g>
</g>
<g>
</g>
<g>
</g>
<g>
</g>
<g>
</g>
<g>
</g>
<g>
</g>
<g>
</g>
<g>
</g>
</g></svg>