<svg xmlns="http://www.w3.org/2000/svg" version="1.1" x="0" y="0" viewBox="0 0 32 32" style="enable-background:new 0 0 512 512" xml:space="preserve" class=""><g><g id="_x30_1"><path d="m17.394043 11.0810547-7-3c-.2519531-.1083984-.5361328-.1083984-.7880859 0l-7 3c-.3676758.1572266-.6059571.519043-.6059571.9189453v8c0 .3999023.2382813.7617188.605957.9189453l7 3c.1259766.0541992.2597657.0810547.394043.0810547s.2680664-.0268555.394043-.0810547l7-3c.3676758-.1572265.605957-.519043.605957-.9189453v-8c0-.3999023-.2382812-.7617187-.605957-.9189453zm-7.394043-.9931641 4.4614258 1.9121094-4.4614258 1.9121094-4.4614258-1.9121094zm-6 3.4285279 5 2.1428223v5.8243408l-5-2.1427612zm7 7.967163v-5.8243408l5-2.1428223v5.8244019z" data-original="#000000" class=""></path><path d="m23 17h1.1843262c.4141235 1.161499 1.5137329 2 2.8156738 2 1.6542969 0 3-1.3457031 3-3s-1.3457031-3-3-3c-1.3019409 0-2.4016113.838501-2.8157349 2h-1.1842651v-9h1.1843262c.4141235 1.161499 1.5137329 2 2.8156738 2 1.6542969 0 3-1.3457031 3-3s-1.3457031-3-3-3c-1.3019409 0-2.4016113.838501-2.8157349 2h-2.1842651c-.5522461 0-1 .4477539-1 1v10h-1c-.5522461 0-1 .4477539-1 1s.4477539 1 1 1h1v10c0 .5522461.4477539 1 1 1h2.1843262c.4141235 1.161499 1.5137329 2 2.8156738 2 1.6542969 0 3-1.3457031 3-3s-1.3457031-3-3-3c-1.3019409 0-2.4016113.838501-2.8157349 2h-1.1842651zm4-2c.5512695 0 1 .4487305 1 1s-.4487305 1-1 1-1-.4487305-1-1 .4487305-1 1-1zm0-11c.5512695 0 1 .4487305 1 1s-.4487305 1-1 1-1-.4487305-1-1 .4487305-1 1-1zm0 22c.5512695 0 1 .4487305 1 1s-.4487305 1-1 1-1-.4487305-1-1 .4487305-1 1-1z" data-original="#000000" class=""></path></g></g></svg>