<svg xmlns="http://www.w3.org/2000/svg" version="1.1" x="0" y="0" viewBox="0 0 64 64" style="enable-background:new 0 0 512 512" xml:space="preserve" class=""><g><path d="M32 1a31 31 0 1 0 31 31A31.035 31.035 0 0 0 32 1zm0 60a29 29 0 1 1 29-29 29.033 29.033 0 0 1-29 29z" data-original="#000000"></path><path d="M53.587 46.753a30.997 30.997 0 0 0-43.174 0 1 1 0 0 0 1.394 1.433 28.997 28.997 0 0 1 40.386 0 1 1 0 0 0 1.394-1.433zM32 34a12 12 0 1 0-12-12 12.013 12.013 0 0 0 12 12zm0-22a10 10 0 1 1-10 10 10.011 10.011 0 0 1 10-10z" data-original="#000000"></path></g></svg>